<svg width="424" height="627" xmlns="http://www.w3.org/2000/svg" xmlns:xlink="http://www.w3.org/1999/xlink" overflow="hidden"><g transform="translate(-79 -17)"><path d="M317.176 643.5 115.825 643.5C96.3154 643.5 80.5001 625.051 80.5001 602.293L80.5001 172.707C80.5001 149.949 96.3154 131.5 115.825 131.5L317.176 131.5C336.685 131.5 352.5 149.949 352.5 172.707L352.5 602.293C352.501 625.051 336.686 643.5 317.176 643.5Z" stroke="#171938" stroke-width="0.855433" stroke-miterlimit="8" fill="#171938" fill-rule="evenodd"/><path d="M317.071 131.5 290.5 131.5C310.067 131.5 325.929 149.949 325.929 172.707L325.929 602.293C325.929 625.051 310.067 643.5 290.5 643.5L317.071 643.5C336.638 643.5 352.5 625.051 352.5 602.293L352.5 172.707C352.5 149.949 336.638 131.5 317.071 131.5Z" stroke="#171938" stroke-width="0.855433" stroke-miterlimit="8" fill="#171938" fill-rule="evenodd"/><path d="M281.864 170.739C281.864 178.427 276.52 184.66 269.926 184.66L164.075 184.66C157.481 184.66 152.137 178.427 152.137 170.739 152.137 166.19 148.975 162.502 145.074 162.501 145.074 162.501 145.073 162.501 145.073 162.501L120.746 162.501C113.431 162.501 107.5 169.416 107.5 177.947L107.5 597.054C107.5 605.584 113.43 612.5 120.746 612.5L313.254 612.5C320.569 612.5 326.5 605.585 326.5 597.054L326.5 177.947C326.5 169.416 320.57 162.5 313.254 162.5L288.928 162.5C285.027 162.5 281.864 166.188 281.864 170.739Z" stroke="#171938" stroke-width="0.855433" stroke-miterlimit="8" fill="#F9F7F8" fill-rule="evenodd"/><path d="M223.5 157.5C223.5 161.918 220.59 165.5 217 165.5 213.41 165.5 210.5 161.918 210.5 157.5 210.5 153.082 213.41 149.5 217 149.5 220.59 149.5 223.5 153.082 223.5 157.5Z" stroke="#171938" stroke-width="0.855433" stroke-miterlimit="8" fill-rule="evenodd"/><path d="M147.134 283.27C143.47 283.27 140.501 279.796 140.501 275.511L140.501 249.503C140.501 241.231 146.254 234.5 153.325 234.5L175.554 234.5C179.217 234.5 182.187 237.974 182.187 242.26 182.187 246.545 179.217 250.02 175.554 250.02L153.767 250.02 153.767 275.51C153.767 279.795 150.797 283.27 147.134 283.27ZM286.867 283.27C283.204 283.27 280.234 279.796 280.234 275.511L280.234 250.021 258.447 250.021C254.784 250.021 251.814 246.546 251.814 242.261 251.814 237.975 254.784 234.501 258.447 234.501L280.676 234.501C287.747 234.501 293.5 241.231 293.5 249.504L293.5 275.512C293.499 279.797 290.53 283.27 286.867 283.27ZM175.553 413.5 153.324 413.5C146.254 413.5 140.5 406.77 140.5 398.497L140.5 372.49C140.5 368.204 143.47 364.73 147.133 364.73 150.796 364.73 153.765 368.204 153.765 372.49L153.765 397.98 175.553 397.98C179.216 397.98 182.185 401.454 182.185 405.739 182.186 410.024 179.218 413.499 175.555 413.5 175.555 413.5 175.554 413.5 175.553 413.5ZM280.676 413.5 258.447 413.5C254.784 413.5 251.814 410.026 251.814 405.74 251.814 401.455 254.784 397.981 258.447 397.981L280.234 397.981 280.234 372.491C280.234 368.205 283.204 364.731 286.867 364.731 290.53 364.731 293.499 368.205 293.499 372.491L293.499 398.498C293.5 406.77 287.747 413.5 280.676 413.5ZM177.203 306.551 198.548 306.551C200.502 306.551 202.086 304.698 202.086 302.412L202.086 277.439C202.086 275.153 200.502 273.3 198.548 273.3L177.203 273.3C175.249 273.3 173.665 275.153 173.665 277.439L173.665 302.412C173.665 304.698 175.249 306.551 177.203 306.551ZM235.452 306.551 256.798 306.551C258.751 306.551 260.335 304.698 260.335 302.412L260.335 277.439C260.335 275.153 258.751 273.3 256.798 273.3L235.452 273.3C233.498 273.3 231.914 275.153 231.914 277.439L231.915 302.412C231.915 304.698 233.498 306.551 235.452 306.551Z" stroke="#171938" stroke-width="0.855433" stroke-miterlimit="8" fill="#171938" fill-rule="evenodd"/><path d="M256.965 273.5 243.708 273.5C245.661 273.5 247.243 275.339 247.243 277.608L247.243 302.392C247.243 304.661 245.661 306.5 243.708 306.5L256.965 306.5C258.917 306.5 260.5 304.661 260.5 302.392L260.5 277.608C260.5 275.339 258.917 273.5 256.965 273.5ZM198.757 273.5 185.5 273.5C187.453 273.5 189.035 275.339 189.035 277.608L189.035 302.392C189.035 304.661 187.453 306.5 185.5 306.5L198.757 306.5C200.709 306.5 202.292 304.661 202.292 302.392L202.292 277.608C202.292 275.339 200.709 273.501 198.757 273.5Z" stroke="#171938" stroke-width="0.855433" stroke-miterlimit="8" fill="#171938" fill-rule="evenodd"/><path d="M177.026 374.704 198.302 374.704C200.25 374.704 201.829 372.842 201.829 370.545L201.829 345.455C201.829 343.158 200.25 341.296 198.302 341.296L177.026 341.296C175.079 341.296 173.5 343.158 173.5 345.455L173.5 370.545C173.5 372.842 175.079 374.704 177.026 374.704ZM224.949 333.5 238.172 333.5 238.172 349.094 224.949 349.094ZM259.889 360.036C256.238 360.036 253.278 356.546 253.278 352.24L253.278 341.297C253.278 336.992 256.238 333.501 259.889 333.501 263.54 333.501 266.5 336.992 266.5 341.297L266.5 352.24C266.5 356.546 263.54 360.036 259.889 360.036ZM259.889 382.5 231.561 382.5C227.91 382.5 224.95 379.01 224.95 374.704 224.95 370.398 227.91 366.908 231.561 366.908L259.889 366.908C263.54 366.908 266.5 370.398 266.5 374.704 266.5 379.01 263.54 382.5 259.889 382.5Z" stroke="#171938" stroke-width="0.855433" stroke-miterlimit="8" fill="#171938" fill-rule="evenodd"/><path d="M198.132 341.5 185.5 341.5C187.36 341.5 188.869 343.339 188.869 345.608L188.869 370.392C188.869 372.661 187.36 374.5 185.5 374.5L198.132 374.5C199.992 374.5 201.5 372.661 201.5 370.392L201.5 345.608C201.5 343.339 199.992 341.5 198.132 341.5Z" stroke="#171938" stroke-width="0.855433" stroke-miterlimit="8" fill="#171938" fill-rule="evenodd"/><path d="M486.5 114.5C486.5 158.683 450.683 194.5 406.5 194.5 362.317 194.5 326.5 158.683 326.5 114.5 326.5 70.3173 362.317 34.5001 406.5 34.5001 450.683 34.5001 486.5 70.3173 486.5 114.5Z" stroke="#6706BA" stroke-width="33.3333" stroke-linecap="round" stroke-linejoin="round" stroke-miterlimit="10" fill="none" fill-rule="evenodd"/><path d="M349.5 57.5001 462.5 171.5" stroke="#6706BA" stroke-width="33.3333" stroke-linecap="round" stroke-linejoin="round" stroke-miterlimit="10" fill="none" fill-rule="evenodd"/><path d="M148.5 504.334C148.5 500.007 152.007 496.5 156.334 496.5L273.667 496.5C277.993 496.5 281.5 500.007 281.5 504.334L281.5 535.667C281.5 539.993 277.993 543.5 273.667 543.5L156.334 543.5C152.007 543.5 148.5 539.993 148.5 535.667Z" stroke="#171938" stroke-width="1.33333" stroke-miterlimit="8" fill="#171938" fill-rule="evenodd"/><text fill="#FFFFFF" font-family="Calibri,Calibri_MSFontService,sans-serif" font-weight="700" font-size="24" transform="translate(181.59 527)">CLAIM</text></g></svg>